<svg width="256" height="256" xmlns="http://www.w3.org/2000/svg">
  <defs>
    <linearGradient id="bg" x1="0%" y1="0%" x2="0%" y2="100%">
      <stop offset="0%" style="stop-color:#6366F1"/>
      <stop offset="100%" style="stop-color:#4338CA"/>
    </linearGradient>
  </defs>

  <!-- Rounded square background -->
  <rect x="12" y="12" width="232" height="232" rx="48" fill="url(#bg)"/>

  <!-- Steam lines -->
  <path d="M106 68 Q106 56 112 50" fill="none" stroke="white" stroke-width="3" stroke-linecap="round" opacity="0.7"/>
  <path d="M128 62 Q128 48 134 42" fill="none" stroke="white" stroke-width="3" stroke-linecap="round" opacity="0.7"/>
  <path d="M150 68 Q150 56 156 50" fill="none" stroke="white" stroke-width="3" stroke-linecap="round" opacity="0.7"/>

  <!-- Lid knob -->
  <rect x="118" y="72" width="20" height="6" rx="3" fill="white" opacity="0.9"/>

  <!-- Lid bar -->
  <rect x="83" y="88" width="90" height="8" rx="4" fill="white"/>

  <!-- Pot body -->
  <rect x="60" y="96" width="136" height="89" rx="16" fill="white"/>

  <!-- Handles -->
  <path d="M56 116 Q42 116 42 130 Q42 144 56 144" fill="none" stroke="white" stroke-width="5" stroke-linecap="round"/>
  <path d="M200 116 Q214 116 214 130 Q214 144 200 144" fill="none" stroke="white" stroke-width="5" stroke-linecap="round"/>

  <!-- Food dots -->
  <circle cx="108" cy="114" r="5" fill="#FBBF24" opacity="0.85"/>
  <circle cx="128" cy="116" r="5" fill="#F87171" opacity="0.85"/>
  <circle cx="148" cy="114" r="5" fill="#34D399" opacity="0.85"/>

  <!-- Recipe text lines -->
  <rect x="75" y="199" width="106" height="3" rx="1.5" fill="white" opacity="0.45"/>
  <rect x="85" y="207" width="86" height="3" rx="1.5" fill="white" opacity="0.45"/>
  <rect x="95" y="215" width="66" height="3" rx="1.5" fill="white" opacity="0.45"/>
</svg>
