<svg width="256" height="256" xmlns="http://www.w3.org/2000/svg">
  <!-- Background circle with gradient -->
  <defs>
    <radialGradient id="grad1" cx="50%" cy="50%" r="50%">
      <stop offset="0%" style="stop-color:#60A5FA;stop-opacity:1" />
      <stop offset="100%" style="stop-color:#3B82F6;stop-opacity:1" />
    </radialGradient>
  </defs>

  <!-- Main circle background -->
  <circle cx="128" cy="128" r="115" fill="url(#grad1)"/>

  <!-- Cooking pot body (trapezoid) -->
  <path d="M 77 110 L 97 110 L 107 160 L 67 160 Z" fill="white" stroke="white" stroke-width="2"/>
  <path d="M 97 110 L 159 110 L 149 160 L 107 160 Z" fill="white" stroke="white" stroke-width="2"/>

  <!-- Pot handles -->
  <path d="M 65 120 Q 55 120 55 135 Q 55 150 65 150" fill="none" stroke="white" stroke-width="8" stroke-linecap="round"/>
  <path d="M 161 120 Q 171 120 171 135 Q 171 150 161 150" fill="none" stroke="white" stroke-width="8" stroke-linecap="round"/>

  <!-- Steam lines -->
  <path d="M 95 85 Q 95 75 100 70" fill="none" stroke="white" stroke-width="5" stroke-linecap="round" opacity="0.8"/>
  <path d="M 115 80 Q 115 70 120 65" fill="none" stroke="white" stroke-width="5" stroke-linecap="round" opacity="0.8"/>
  <path d="M 135 85 Q 135 75 130 70" fill="none" stroke="white" stroke-width="5" stroke-linecap="round" opacity="0.8"/>

  <!-- Spoon -->
  <circle cx="150" cy="125" r="10" fill="white"/>
  <line x1="150" y1="125" x2="175" y2="100" stroke="white" stroke-width="6" stroke-linecap="round"/>

  <!-- Small food items/vegetables -->
  <circle cx="95" cy="135" r="6" fill="#FCD34D" opacity="0.9"/>
  <circle cx="120" cy="140" r="7" fill="#F87171" opacity="0.9"/>
  <circle cx="110" cy="130" r="5" fill="#34D399" opacity="0.9"/>
</svg>
